<?xml version="1.0" encoding="utf-8"?>
<!-- Generator: Adobe Illustrator 25.2.1, SVG Export Plug-In . SVG Version: 6.00 Build 0)  -->
<svg version="1.1" id="Layer_1" xmlns="http://www.w3.org/2000/svg" xmlns:xlink="http://www.w3.org/1999/xlink" x="0px" y="0px"
	 viewBox="0 0 2000 2000" style="enable-background:new 0 0 2000 2000;" xml:space="preserve">
<style type="text/css">
	.st0{fill:#E6E6E6;}
	.st1{fill:#FFFFFF;}
	.st2{fill:#79C4C4;}
	.st3{fill:none;}
	.st4{fill:#BED2D3;}
	.st5{fill:#758280;}
	.st6{fill:#BFBFBF;}
	.st7{fill:#0D0E21;}
</style>
<g>
	<g>
		<g>
			<path d="M404.6,1366c0,23.8,19.5,43.3,43.3,43.3h59.6c8.9,0,16,7.4,16,16c0,8.9-7.1,16-16,16H404.6v27.7h102.9
				c23.8,0,43.3-19.5,43.3-43.6c0-23.8-19.5-43.3-43.3-43.3h-59.6c-8.9,0-16-7.1-16-16c0-8.9,7.1-16,16-16h102.9v-27.3H447.8
				C424.1,1322.7,404.6,1341.9,404.6,1366z"/>
			<path d="M687.6,1322.7c-40.4,0-73.1,33-73.1,73.1c0,40.4,32.6,73.1,73.1,73.1c28.7,0,53.9-16.7,65.6-40.8h-33
				c-8.5,8.2-19.9,13.5-32.6,13.5c-20.6,0-38-13.5-43.6-31.9h115.3c0.7-4.3,1.4-8.9,1.4-13.8
				C760.7,1355.7,728.1,1322.7,687.6,1322.7z M644,1382.3c5.7-18.4,23.1-31.9,43.6-31.9c20.2,0,37.6,13.5,43.6,31.9H644z"/>
			<path d="M897.7,1322.7c-40.4,0-73.1,32.6-73.1,73.1c0,40.4,32.6,73.1,73.1,73.1c17.4,0,33-6,45.8-16v16h27.3v-73.1
				C970.7,1355.3,938.1,1322.7,897.7,1322.7z M897.7,1441.5c-25.2,0-45.8-20.6-45.8-45.8c0-25.2,20.6-45.8,45.8-45.8
				c25.2,0,45.8,20.6,45.8,45.8C943.4,1421,922.8,1441.5,897.7,1441.5z"/>
			<path d="M1107.7,1322.7c-40.4,0-73.1,32.6-73.1,73.1v73.1h27.3v-73.1c0-25.2,20.6-45.8,45.8-45.8s45.8,20.6,45.8,45.8v73.1h27.3
				v-73.1C1180.7,1355.3,1148.1,1322.7,1107.7,1322.7z"/>
			<path d="M1317.7,1350.4c14.9,0,28.4,7.1,36.5,18.1h31.2c-10.6-26.6-36.9-45.8-67.8-45.8c-40.1,0-73.1,33-73.1,73.1
				c0,40.4,33,73.1,73.1,73.1c30.9,0,57.1-18.8,67.8-45.4h-31.2c-8.2,11-21.6,18.1-36.5,18.1c-25.2,0-45.4-20.6-45.4-45.8
				C1272.3,1370.6,1292.5,1350.4,1317.7,1350.4z"/>
			<path d="M1595.4,1395.8c0-40.1-32.6-73.1-73.1-73.1c-40.4,0-73.1,33-73.1,73.1c0,40.4,32.6,73.1,73.1,73.1
				c28.7,0,53.9-16.7,65.6-40.8h-33c-8.5,8.2-19.9,13.5-32.6,13.5c-20.6,0-38-13.5-43.6-31.9H1594
				C1594.7,1405.4,1595.4,1400.8,1595.4,1395.8z M1478.7,1382.3c5.7-18.4,23.1-31.9,43.6-31.9c20.2,0,37.6,13.5,43.6,31.9H1478.7z"
				/>
		</g>
	</g>
	<g>
		<g>
			<g>
				<ellipse cx="1010.5" cy="1206" rx="237.9" ry="30.6"/>
			</g>
			<path d="M907.4,599.5c-21.2-12.2-37-29.9-50.8-49.7c-1.8-2.5-4.4-4.4-7.6-3.5c-3.8,1-5,4.4-5.2,8c-0.2,2.5,0,5.1,0,7.7
				c1.2,29.6,12.5,54.4,35.4,73.7c5.4,4.5,8.1,4.4,11-2.3c4.1-9.4,10.1-17.7,16.5-25.7C908.7,605.2,912.4,602.3,907.4,599.5z"/>
			<path d="M1181.8,569.6c1.5-7.4,4.5-17.2-3-21.3c-8.5-4.7-11.8,6-16.2,11c-23,26-49.5,45.9-85.3,49.9
				c-15.8,1.8-19.6,5.6-19.4,21.6c0.1,8.2,2.8,15.9,5.9,23.4c2.8,6.7,7,10.6,13.8,8.6C1126.3,661.5,1171.4,620.9,1181.8,569.6z"/>
			<path class="st0" d="M812.4,656.2l-25.7-12.1c0,0.6,0,1.3,0,1.9c-0.2,9.9-0.5,21.2-0.1,28c0.7,12.5-5.4,19.6-18.2,20.9
				c-24.1,2.5-48.9,7.3-75.8,14.6c-65.9,18-110.5,42.5-144.7,79.3c-16.6,17.9-29.2,38-38,60.6c27.1-39,65.3-66.4,114-81.8
				c51.2-16.1,102.9-16.3,146.7-14.4c15.3,0.7,15.1,13,15.1,17.7l-0.2,17.1c-0.2,14.4-0.4,28.8-0.6,43.2l0,2.6l-2.5,229.8l0,0
				l-0.1,10.5c-0.4,29.8-0.7,59.8-0.9,86.5l13.3-6.2c1-37.6,2.5-75.7,4-112.5c0.6-14,1.1-27.9,1.7-41.9c0.2-4.1,0.3-7.4,0.6-10.1
				l0.2-9.1l-0.3,0.1l6.1-163.5c0.4-10.9,0.8-21.8,1.2-32.7c1.2-34.1,2.5-69.3,3.9-104C812.2,673.8,812.4,662.8,812.4,656.2z"/>
			<path class="st0" d="M840.8,953.9c3.1-0.5,6.4-0.6,9.6-0.7c3.1,0,6.3,0.2,9.3,0.8c5.8,1.2,11.4,3.9,15.1,8.7
				c5,6.3,5.7,14.9,6.8,22.9c1.7,13.4,4.9,26.7,9.3,39.4c3.8,10.9,8.6,21.6,10,33.1c1.6,12.5-0.9,25.1-3.3,37.4
				c-5.5,27.9-11,55.8-16.6,83.8c-1.8,8.9-2.9,19.7,5.3,24.8c3.7,2.3,8.2,2.5,12.3,1.1c8.4-2.8,13.4-10,18.1-16.9
				c14-20.6,28.1-41.2,42.1-61.8c3.3-4.9,6.8-9.9,11.6-13.3c5.8-4.1,13.1-5.5,20.1-6.8c13.9-2.6,27.8-5.1,41.7-7.7
				c7.9-1.5,16.3-2.9,23.8,0.1c7.6,3,12.8,10.1,17.6,16.8c14.6,20.6,29.3,41.2,43.9,61.7c4.7,6.6,9.6,13.4,17.6,16.3
				c3.5,1.3,7.3,1.5,10.8,0.2c8-3,9.3-11.3,10-18.7c2.8-31,2.4-62.2-1.2-93.1c-1.4-12-2.6-25.9,5.9-34.4c7.6-7.5,19.6-7.4,30.4-7.9
				c27.6-1.2,55.2-10.2,76.6-27.5c21.5-17.4,36.2-43.6,37.4-71.1c1.2-30.1-13.4-59.1-33.2-81.8c-12.4-14.2-26.9-26.6-37.9-41.9
				c-11-15.3-18.4-34.6-13.9-52.9s24.3-33.2,42.2-27.5c9.6,3.1,17.6,11.4,27.7,11.4c12.9,0,21.9-14.2,21.8-27.1
				c-0.2-12.9-6.6-24.7-11.8-36.5c-5.2-11.8-9.3-25.3-4.7-37.4l-32.1-2.5c6.7-10.5,13.5-20.9,20.2-31.4c-20.6,0.3-38,17.2-45.5,36.4
				c-7.5,19.2-7.2,40.4-6.8,61.1c-5.3-5.3-10.6-10.6-15.9-15.9c-3.5,9.2,4.7,18.7,5.5,28.5c1.1,14.5-13.5,24.7-21.1,37.2
				c-11.5,18.8-6.3,43.8,5.4,62.4c11.7,18.6,29,33,43.6,49.4c14.6,16.4,27.2,36.8,26.2,58.8c-1.6,34.1-34.9,58.1-67.3,69
				c-15.8,5.3-34,8.6-48.3,0.1c-14.3-8.5-18.3-33.1-3.6-40.8c9.7-5.1,21.7-0.5,32.5-2.1c22-3.2,28.8-29.8,20.8-47.7
				c-2.4-5.4-6.6-9.4-10.5-13.8c-6.3-4.6-13.1-8.8-20.4-12.7c-25.4-13.6-28.6-19.4-27-47.9l0.1-2.1c2.9-51.1,3.2-111-17.2-167.5
				c-0.4-1.2-0.8-2.4-1.1-3.6c-16.2,9.4-34.4,15.1-53,15.9c-1.9,0.4-3.7,0.6-5.6,0.6c-6.3,0-17.9-2.4-24.6-18.6
				c-3.6-8.7-7-18.2-7.1-29.2c-0.2-23.7,9.4-34.4,33.1-37.1c0.8-0.1,1.5-0.2,2.3-0.3c-19.8-11.8-44.2-18.3-69.5-18.3
				c-27.6,0-54,7.7-74.1,21.7c-3,2.1-6,3.6-9,4.5c0.5,7.8-4.3,13.2-6.2,15.4l-0.4,0.5c-4.7,5.8-10.7,13.6-14.4,22.2
				c-4.7,10.7-11.6,13.9-17.2,14.5c1.9,10.8,0.4,21.4-1.6,31.7c-6.3,32-7.3,64.3-8.2,98.4c-0.4,14.8-0.9,30.2-1.8,45.3l-0.1,2.1
				c-2.2,36.5-7.7,42.2-45.2,47.5l-0.6,0.1c-2.3,0.3-4.3,0.5-6.1,0.5c-1.1,0-2.1-0.1-3.1-0.2l-2.8,76
				C825.3,955.6,833.1,955.2,840.8,953.9z"/>
			<path class="st1" d="M907.4,599.5c-21.2-12.2-37-29.9-50.8-49.7c-1.8-2.5-4.4-4.4-7.6-3.5c-3.8,1-5,4.4-5.2,8
				c-0.2,2.5,0,5.1,0,7.7c1.2,29.6,12.5,54.4,35.4,73.7c5.4,4.5,8.1,4.4,11-2.3c4.1-9.4,10.1-17.7,16.5-25.7
				C908.7,605.2,912.4,602.3,907.4,599.5z"/>
			<path class="st0" d="M748,922.4c0.2,5.5,3.4,10.8,9,15.4c0,0,3.5,3.3,10.8,7l0.5-47.5c-4.7,2.4-8.9,5.4-12.7,9
				C750.4,911.3,747.7,916.9,748,922.4z"/>
			<path class="st1" d="M1181.8,569.6c1.5-7.4,4.5-17.2-3-21.3c-8.5-4.7-11.8,6-16.2,11c-23,26-49.5,45.9-85.3,49.9
				c-15.8,1.8-19.6,5.6-19.4,21.6c0.1,8.2,2.8,15.9,5.9,23.4c2.8,6.7,7,10.6,13.8,8.6C1126.3,661.5,1171.4,620.9,1181.8,569.6z"/>
			<path class="st2" d="M786.7,644.1c0,0.6,0,1.3,0,1.9c-0.2,9.9-0.5,21.2-0.1,28c0.7,12.5-5.4,19.6-18.2,20.9
				c-24.1,2.5-48.9,7.3-75.8,14.6c-65.9,18-110.5,42.5-144.7,79.3c-16.6,17.9-29.2,38-38,60.6c27.1-39,65.3-66.4,114-81.8
				c51.2-16.1,102.9-16.3,146.7-14.4c15.3,0.7,15.1,13,15.1,17.7l-0.2,17.1c-0.2,14.4-0.4,28.8-0.6,43.2l0,2.6l-2.5,229.8l0,0
				l-0.1,10.5c-0.4,29.8-0.7,59.8-0.9,86.5l13.3-6.2c1-37.6,2.5-75.7,4-112.5c0.6-14,1.1-27.9,1.7-41.9c0.2-4.1,0.3-7.4,0.6-10.1
				l0.2-9.1l-0.3,0.1l6.1-163.5c0.4-10.9,0.8-21.8,1.2-32.7c1.2-34.1,2.5-69.3,3.9-104c0.3-7.1,0.5-18.1,0.5-24.8L786.7,644.1z"/>
			<path class="st3" d="M808.8,963.8c0,0,0,0,1.1-0.2C808.8,963.8,808.8,963.8,808.8,963.8L808.8,963.8z"/>
			<path class="st0" d="M748,922.4c0.2,5.5,3.4,10.8,9,15.4c0,0,3.5,3.3,10.8,7l0.5-47.5c-4.7,2.4-8.9,5.4-12.7,9
				C750.4,911.3,747.7,916.9,748,922.4z"/>
			<path class="st3" d="M1057.8,630.7c0.1,8.2,2.8,15.9,5.9,23.4c2.8,6.7,7,10.6,13.8,8.6c48.7-1.2,93.8-41.8,104.2-93.1
				c1.5-7.4,4.5-17.2-3-21.3c-8.5-4.7-11.8,6-16.2,11c-23,26-49.5,45.9-85.3,49.9C1061.5,610.9,1057.7,614.7,1057.8,630.7z"/>
			<path class="st3" d="M890.2,633.3c4.1-9.4,10.1-17.7,16.5-25.7c2-2.4,5.7-5.2,0.7-8.1c-21.2-12.2-37-29.9-50.8-49.7
				c-1.8-2.5-4.4-4.4-7.6-3.5c-3.8,1-5,4.4-5.2,8c-0.2,2.5,0,5.1,0,7.7c1.2,29.6,12.5,54.4,35.4,73.7
				C884.5,640.1,887.3,640,890.2,633.3z"/>
			<path class="st4" d="M1262.2,736.8c9.6,3.1,17.6,11.4,27.7,11.4c12.9,0,21.9-14.2,21.8-27.1c-0.2-12.9-6.6-24.7-11.8-36.5
				c-5.2-11.8-9.3-25.3-4.7-37.4l-32.1-2.5c6.7-10.5,13.5-20.9,20.2-31.4c-20.6,0.3-38,17.2-45.5,36.4c-7.5,19.2-7.2,40.4-6.8,61.1
				c-5.3-5.3-10.6-10.6-15.9-15.9c-3.5,9.2,4.7,18.7,5.5,28.6c1.1,14.5-13.5,24.7-21.1,37.2c-11.5,18.8-6.3,43.8,5.4,62.4
				c11.7,18.6,29,33,43.6,49.4c14.6,16.4,27.2,36.8,26.2,58.8c-1.6,34.1-34.9,58.1-67.3,69c-15.8,5.3-34,8.6-48.3,0.1
				c-14.3-8.5-18.3-33.1-3.6-40.8c9.7-5.1,21.7-0.5,32.5-2.1c22-3.2,28.8-29.8,20.8-47.7c-2.4-5.4-6.6-9.4-10.5-13.8
				c-6.3-4.6-13.1-8.8-20.4-12.7c-25.4-13.6-28.6-19.4-27-47.9l0.1-2.1c2.9-51.1,3.2-111-17.2-167.5c-0.4-1.2-0.8-2.4-1.1-3.6
				c-16.2,9.4-34.4,15.1-53,15.9c-1.9,0.4-3.7,0.6-5.6,0.6c-6.3,0-17.9-2.4-24.6-18.6c-3.6-8.7-7-18.2-7.1-29.2
				c-0.2-23.7,9.4-34.4,33.1-37.1c0.8-0.1,1.5-0.2,2.3-0.3c-19.8-11.8-44.2-18.3-69.5-18.3c-27.6,0-54,7.7-74.1,21.7
				c-3,2.1-6,3.6-9,4.5c0.5,7.8-4.3,13.2-6.2,15.4l-0.4,0.5c-4.7,5.8-10.7,13.6-14.4,22.2c-4.7,10.7-11.6,13.9-17.2,14.5
				c1.9,10.8,0.4,21.4-1.6,31.7c-6.3,32-7.3,64.3-8.2,98.4c-0.4,14.8-0.9,30.2-1.8,45.3l-0.1,2.1c-2.2,36.5-7.7,42.2-45.2,47.5
				l-0.6,0.1c-2.3,0.3-4.3,0.5-6.1,0.5c-1.1,0-2.1-0.1-3.1-0.2l-2.8,76c7.9,0.3,15.6-0.1,23.3-1.5c3.1-0.5,6.4-0.6,9.6-0.7
				c3.1,0,6.3,0.2,9.3,0.8c5.8,1.2,11.4,3.9,15.1,8.7c5,6.3,5.7,14.9,6.8,22.9c1.7,13.4,4.9,26.7,9.3,39.4
				c3.8,10.9,8.6,21.6,10,33.1c1.6,12.5-0.9,25.1-3.3,37.4c-5.5,27.9-11,55.8-16.6,83.8c-1.8,8.9-2.9,19.7,5.3,24.8
				c3.7,2.3,8.2,2.5,12.3,1.1c8.4-2.8,13.4-10,18.1-16.9c14-20.6,28.1-41.2,42.1-61.8c3.3-4.9,6.8-9.9,11.6-13.3
				c5.8-4.1,13.1-5.5,20.1-6.8c13.9-2.6,27.8-5.1,41.7-7.7c7.9-1.5,16.3-2.9,23.8,0.1c7.6,3,12.8,10.1,17.6,16.8
				c14.6,20.6,29.3,41.2,43.9,61.7c4.7,6.6,9.6,13.4,17.6,16.3c3.5,1.3,7.3,1.5,10.8,0.2c8-3,9.3-11.3,10-18.7
				c2.8-31,2.4-62.2-1.2-93.1c-1.4-12-2.6-25.9,5.9-34.4c7.6-7.5,19.6-7.4,30.4-7.9c27.6-1.3,55.2-10.2,76.6-27.6
				c21.5-17.4,36.2-43.6,37.4-71.1c1.2-30.1-13.4-59.1-33.2-81.8c-12.4-14.2-26.9-26.6-37.9-41.9s-18.4-34.6-13.9-52.9
				C1224.5,746,1244.3,731,1262.2,736.8z"/>
			<g>
				<path d="M764.9,959.8c-1.9-0.6-3.6-1.3-5.1-2C761.5,958.6,763.2,959.2,764.9,959.8z"/>
			</g>
			<g>
				<path d="M844.1,876.7c0,0-20.9,7.4-32.2,0"/>
			</g>
			<g>
				<path class="st3" d="M907.4,599.5c-21.2-12.2-37-29.9-50.8-49.7c-1.8-2.5-4.4-4.4-7.6-3.5c-3.8,1-5,4.4-5.2,8
					c-0.2,2.5,0,5.1,0,7.7c1.2,29.6,12.5,54.4,35.4,73.7c5.4,4.5,8.1,4.4,11-2.3c4.1-9.4,10.1-17.7,16.5-25.7
					C908.7,605.2,912.4,602.3,907.4,599.5z"/>
			</g>
			<g>
				<path d="M1256,946.8c0.6-1.2,0.8-1.9,0.8-1.9C1256.6,945.6,1256.3,946.2,1256,946.8z"/>
			</g>
			<g>
				<g>
					<path class="st4" d="M1181.8,569.6c1.5-7.4,4.5-17.2-3-21.3c-8.5-4.7-11.8,6-16.2,11c-23,26-49.5,45.9-85.3,49.9
						c-15.8,1.8-19.6,5.6-19.4,21.6c0.1,8.2,2.8,15.9,5.9,23.4c2.8,6.7,7,10.6,13.8,8.6C1126.3,661.5,1171.4,620.9,1181.8,569.6z"/>
				</g>
			</g>
			<g>
				<g>
					<path class="st4" d="M907.4,599.5c-21.2-12.2-37-29.9-50.8-49.7c-1.8-2.5-4.4-4.4-7.6-3.5c-3.8,1-5,4.4-5.2,8
						c-0.2,2.5,0,5.1,0,7.7c1.2,29.6,12.5,54.4,35.4,73.7c5.4,4.5,8.1,4.4,11-2.3c4.1-9.4,10.1-17.7,16.5-25.7
						C908.7,605.2,912.4,602.3,907.4,599.5z"/>
				</g>
			</g>
			<g>
				<path class="st0" d="M1208,883.9C1208,883.9,1208,883.9,1208,883.9c-0.8,4.4-1.8,10.4-2.9,17.1c0,0,0,0,0,0L1208,883.9z"/>
			</g>
			<g>
				<g>
					<ellipse cx="925.8" cy="747.4" rx="16.2" ry="24.3"/>
				</g>
				<g>
					<ellipse cx="1024.2" cy="758.2" rx="24.2" ry="36.3"/>
				</g>
				<g>
					<path d="M995.6,708.4c4.1-5.9,9.7-10.5,16-14c6.3-3.4,13.6-5.7,21.3-5.8c7.7-0.1,15.8,2.4,21.7,7.4c6,4.9,9.7,11.7,10.9,18.7
						c-5.6-4.5-10.6-8.5-16-10.8c-5.3-2.5-10.8-3.3-16.5-3.4c-5.8,0.1-11.8,1.1-18,2.6C1008.7,704.6,1002.4,706.5,995.6,708.4z"/>
				</g>
			</g>
			<g>
				<path d="M909.6,806.9c5,4.3,9.9,8.2,14.9,11.8c5,3.6,10,6.8,15.2,9.5c10.3,5.5,20.9,9.3,32,10.9c11,1.6,22.4,1.2,34.1-0.8
					c5.9-0.9,11.8-2.3,17.8-3.7c3-0.8,6-1.6,9.1-2.4c3-0.9,6.1-1.8,9.4-2.5c-2.2,2.4-4.6,4.7-7,7c-2.5,2.1-5.1,4.1-7.8,6
					c-5.5,3.7-11.3,7-17.6,9.4c-12.5,5.1-26.8,7.1-40.8,5c-14-2-27.2-8.3-37.6-17.2c-5.2-4.5-9.7-9.6-13.4-15.1
					c-1.9-2.8-3.5-5.7-5-8.7C911.6,813.3,910.4,810.2,909.6,806.9z"/>
			</g>
			<path class="st5" d="M1110.5,667.2c0,0,37.7,102.6,17.6,189.3l38.1,19.1l-9.2-153.8l-20.5-67.6L1110.5,667.2z"/>
			<path class="st5" d="M1189.6,886.9c0,0,38.3,52.4-19,71.4c-2.8,0.9-8.8-0.9-11.9,0l-34.5,16.6c0,0,31.5,175.5,5.6,216l11.7,15.2
				l20.9-14l2.8-104l-11.8-108.7l4.2-13.1h13.5l30.2-3.9l13.4-17.4c0,0,12.2-16.3,11-18.1S1189.6,886.9,1189.6,886.9z"/>
			<g>
				<path class="st3" d="M748,922.4c0.2,5.5,3.4,10.8,9,15.4c0,0,3.5,3.3,10.8,7l0.5-47.5c-4.7,2.4-8.9,5.4-12.7,9
					C750.4,911.3,747.7,916.9,748,922.4z"/>
				<path class="st3" d="M808.8,963.8c0,0,0,0,1.1-0.2C808.8,963.8,808.8,963.8,808.8,963.8L808.8,963.8z"/>
				<path class="st3" d="M1191,1039.5c27.6-1.3,55.2-10.2,76.6-27.6c21.5-17.4,36.2-43.6,37.4-71.1c1.2-30.1-13.4-59.1-33.2-81.8
					c-12.4-14.2-26.9-26.6-37.9-41.9s-18.4-34.6-13.9-52.9c4.5-18.3,24.3-33.2,42.2-27.5c11.6,3.7,21,15.1,34.4,10.2
					c7.4-2.7,12.4-9.4,14.2-17c3.7-16.4-4.5-30.9-10.9-45.4c-5.2-11.8-9.3-25.3-4.7-37.4l-32.1-2.5c6.7-10.5,13.5-20.9,20.2-31.4
					c-20.6,0.3-38,17.2-45.5,36.4c-7.5,19.2-7.2,40.4-6.8,61.1c-5.3-5.3-10.6-10.6-15.9-15.9c-3.5,9.2,4.7,18.7,5.5,28.6
					c1.1,14.5-13.5,24.7-21.1,37.2c-11.5,18.8-6.3,43.8,5.4,62.4c11.7,18.6,29,33,43.6,49.4c14.6,16.4,27.2,36.8,26.2,58.8
					c-1.6,34.1-34.9,58.1-67.3,69c-13.3,4.5-28.3,7.5-41.2,3.2l2.3,39.1C1175.3,1039.9,1183.5,1039.9,1191,1039.5z"/>
				<path class="st3" d="M1152.5,961.5c10.2-8.1,23.5-2.3,35.5-4c22-3.2,28.8-29.8,20.8-47.7c-2.4-5.4-6.6-9.4-10.5-13.8
					c-6.3-4.6-13.1-8.8-20.4-12.7c-25.4-13.6-28.6-19.4-27-47.9l0.1-2.1c2.9-51.1,3.2-111-17.2-167.5c-0.4-1.2-0.8-2.4-1.1-3.6
					c-16.2,9.4-34.4,15.1-53,15.9c-1.9,0.4-3.7,0.6-5.6,0.6c-6.3,0-17.9-2.4-24.6-18.6c-3.6-8.7-7-18.2-7.1-29.2
					c-0.2-24.4,10-35.1,35.4-37.3c0,0,0,0,0-0.1c-19.8-11.8-44.2-18.3-69.5-18.3c-27.6,0-54,7.7-74.1,21.7c-3,2.1-6,3.6-9,4.5
					c0.5,7.8-4.3,13.2-6.2,15.4l-0.4,0.5c-4.7,5.8-10.7,13.6-14.4,22.2c-4.7,10.7-11.6,13.9-17.2,14.5c1.9,10.8,0.4,21.4-1.6,31.7
					c-6.3,32-7.3,64.3-8.2,98.4c-0.4,14.8-0.9,30.2-1.8,45.3l-0.1,2.1c-2.2,36.5-7.7,42.2-45.2,47.5l-0.6,0.1
					c-2.3,0.3-4.3,0.5-6.1,0.5c-1.1,0-2.1-0.1-3.1-0.2l-2.8,76c7.2,0.3,14.3,0,21.4-1.1c1.6-0.2,3.1-0.5,4.7-0.6
					c5.3-0.5,10.8-0.6,16.1,0.5c5.8,1.2,11.4,3.9,15.1,8.7c5,6.3,5.7,14.9,6.8,22.9c1.7,13.4,4.9,26.7,9.3,39.4
					c3.8,10.9,8.6,21.6,10,33.1c1.6,12.5-0.9,25.1-3.3,37.4c-5.5,27.9-11,55.8-16.6,83.8c-1.8,8.9-2.9,19.7,5.3,24.8
					c3.7,2.3,8.4,2.5,12.5,1c8.3-2.8,13.2-10,17.9-16.8c14-20.6,28.1-41.2,42.1-61.8c3.3-4.9,6.8-9.9,11.6-13.3
					c5.8-4.1,13.1-5.5,20.1-6.8c13.9-2.6,27.8-5.1,41.7-7.7c7.9-1.5,16.3-2.9,23.8,0.1c7.6,3,12.8,10.1,17.6,16.8
					c14.6,20.6,29.3,41.2,43.9,61.7c4.8,6.7,9.8,13.7,18,16.4c3.3,1.1,6.9,1.3,10.2,0.1c8.2-3,9.5-11.4,10.2-18.8
					c2.3-25.8,2.4-51.8,0.3-77.6c-3.1-19.8-7.3-81.8-9.1-109.2C1142.7,979.1,1144.2,968.1,1152.5,961.5z"/>
				<path class="st3" d="M786.7,644.1c0,0.6,0,1.3,0,1.9c-0.2,9.9-0.5,21.2-0.1,28c0.7,12.5-5.4,19.6-18.2,20.9
					c-24.1,2.5-48.9,7.3-75.8,14.6c-65.9,18-110.5,42.5-144.7,79.3c-16.6,17.9-29.2,38-38,60.6c27.1-39,65.3-66.4,114-81.8
					c51.2-16.1,102.9-16.3,146.7-14.4c15.3,0.7,15.1,13,15.1,17.7l-0.2,17.1c-0.2,14.4-0.4,28.8-0.6,43.2l0,2.6l-2.5,229.8l0,0
					l-0.1,10.5c-0.4,29.8-0.7,59.8-0.9,86.5l13.3-6.2c1-37.6,2.5-75.7,4-112.5c0.6-14,1.1-27.9,1.7-41.9c0.2-4.1,0.3-7.4,0.6-10.1
					l0.2-9.1l-0.3,0.1l6.1-163.5c0.4-10.9,0.8-21.8,1.2-32.7c1.2-34.1,2.5-69.3,3.9-104c0.3-7.1,0.5-18.1,0.5-24.8L786.7,644.1z"/>
				<path class="st3" d="M907.4,599.5c-21.2-12.2-37-29.9-50.8-49.7c-1.8-2.5-4.4-4.4-7.6-3.5c-3.8,1-5,4.4-5.2,8
					c-0.2,2.5,0,5.1,0,7.7c1.2,29.6,12.5,54.4,35.4,73.7c5.4,4.5,8.1,4.4,11-2.3c4.1-9.4,10.1-17.7,16.5-25.7
					C908.7,605.2,912.4,602.3,907.4,599.5z"/>
				<path class="st3" d="M1181.8,569.6c1.5-7.4,4.5-17.2-3-21.3c-8.5-4.7-11.8,6-16.2,11c-23,26-49.5,45.9-85.3,49.9
					c-15.8,1.8-19.6,5.6-19.4,21.6c0.1,8.2,2.8,15.9,5.9,23.4c2.8,6.7,7,10.6,13.8,8.6C1126.3,661.5,1171.4,620.9,1181.8,569.6z"/>
				<path d="M1170.8,1082.2l1.2,19.9C1171.7,1095.4,1171.3,1088.8,1170.8,1082.2z"/>
				<path d="M1172.4,1108.3l-0.4-6.2C1172.1,1104.1,1172.2,1106.2,1172.4,1108.3L1172.4,1108.3z"/>
				<path d="M1169.6,1065.6c0.5,5.5,0.8,11.1,1.2,16.6l-1.2-19.5c0,0,0,0.1,0,0.1C1169.5,1063.7,1169.5,1064.6,1169.6,1065.6z"/>
				<g>
					<path class="st6" d="M1153.8,1074.1c0.5,3.4,0.9,6.9,1.2,10.3c-0.1-0.8-0.2-1.7-0.3-2.5c-1.2-9.9-2.2-21.2,2.4-29.6
						c-1.1,2-2,4.3-2.7,6.9C1153.2,1064.1,1153.1,1069.1,1153.8,1074.1z"/>
					<path class="st6" d="M1156.8,998.8c0.6,0.4,1.2,0.9,1.8,1.2C1158,999.6,1157.4,999.2,1156.8,998.8z"/>
					<path class="st6" d="M1158.5,1050.1c-0.1,0.2-0.3,0.3-0.4,0.5C1158.2,1050.5,1158.3,1050.3,1158.5,1050.1z"/>
					<path class="st6" d="M1155.4,1088c0.3,2.9,0.6,5.8,0.8,8.7C1155.9,1093.7,1155.7,1090.9,1155.4,1088z"/>
					<path class="st4" d="M1233.9,817.2c-11-15.3-18.4-34.6-13.9-52.9c4.5-18.3,24.3-33.2,42.2-27.5c9.6,3.1,17.6,11.4,27.7,11.4
						c12.9,0,21.9-14.2,21.8-27.1c-0.2-12.9-6.6-24.7-11.8-36.5c-5.2-11.8-9.3-25.3-4.7-37.4l-32.1-2.5
						c6.7-10.5,13.5-20.9,20.2-31.4c-20.6,0.3-38,17.2-45.5,36.4c-7.5,19.2-7.2,40.4-6.8,61.1c-5.3-5.3-10.6-10.6-15.9-15.9
						c-3.5,9.2,4.7,18.7,5.5,28.6c1.1,14.5-13.5,24.7-21.1,37.2c-11.5,18.8-6.3,43.8,5.4,62.4c11.7,18.6,29,33,43.6,49.4
						c14.6,16.4,27.2,36.8,26.2,58.8c-1.6,34.1-34.9,58.1-67.3,69c-13.3,4.5-28.3,7.5-41.2,3.3l2.3,39.1c6.8-2.6,15-2.7,22.6-3
						c27.6-1.3,55.2-10.2,76.6-27.6c21.5-17.4,36.2-43.6,37.4-71.1c1.2-30.1-13.4-59.1-33.2-81.8
						C1259.4,844.8,1244.9,832.4,1233.9,817.2z"/>
					<path class="st6" d="M1161.8,1046.4C1161.8,1046.4,1161.8,1046.4,1161.8,1046.4C1161.8,1046.4,1161.8,1046.4,1161.8,1046.4z"/>
					<path class="st6" d="M1159.7,1048.5c0.1-0.1,0.3-0.3,0.4-0.4C1160,1048.2,1159.9,1048.4,1159.7,1048.5z"/>
					<path d="M1158.1,1050.6c-0.4,0.5-0.7,1.1-1,1.6C1157.4,1051.7,1157.7,1051.1,1158.1,1050.6z"/>
					<path d="M1159.7,1048.5c-0.5,0.5-0.9,1-1.3,1.6C1158.9,1049.5,1159.3,1049,1159.7,1048.5z"/>
					<path d="M1168.5,1042.6L1168.5,1042.6c-2.4,0.9-4.7,2.2-6.7,3.9C1163.8,1044.7,1166.1,1043.5,1168.5,1042.6z"/>
					<path d="M1156.2,1097.3c0-0.2,0-0.4-0.1-0.6c0,0.2,0,0.3,0,0.5C1156.2,1097.2,1156.2,1097.2,1156.2,1097.3z"/>
					<path d="M1166.2,1003.5L1166.2,1003.5c-2.6-0.9-5.1-2-7.5-3.5c0.2,0.1,0.3,0.2,0.5,0.3
						C1161.4,1001.7,1163.7,1002.7,1166.2,1003.5z"/>
					<path d="M1155,1084.4c0.1,1.2,0.2,2.4,0.4,3.6C1155.3,1086.8,1155.1,1085.6,1155,1084.4z"/>
					<path d="M1160.1,1048.1c0.5-0.6,1.1-1.1,1.7-1.6c-0.4,0.3-0.8,0.6-1.1,1C1160.5,1047.6,1160.3,1047.9,1160.1,1048.1z"/>
					<path d="M1156.5,998.5c0.1,0.1,0.2,0.2,0.3,0.2C1156.7,998.7,1156.6,998.6,1156.5,998.5z"/>
				</g>
				<path class="st7" d="M1247,754c6.2-2.7,11.9-2.1,17.5-0.3c9,3,17.6,9.2,27.2,10.1c15.6,1.5,29.4-12.3,33.1-27.5
					c3.6-15.2-0.6-31.2-6.1-45.8c-3.8-10.1-8.2-20.2-9-30.9c-0.9-10.7,2.6-22.6,11.5-28.6c-10.3-1.7-20.9-1.7-31.2,0.2
					c8.1-10.5,17.4-19.9,27.8-28.2c-22.5-10.1-50.4-7.2-70.4,7.4c-19.9,14.6-31.1,40.3-28.3,64.9c-2.2-3.3-4.3-6.6-6.5-9.8
					c-11.6,12.6-16,31.5-11.2,47.9c1.3,4.5,3.3,9.1,2.7,13.7c-0.8,6.2-5.9,10.8-10.1,15.5c-14,15.7-20,38.2-15.5,58.7
					c8.8,40.4,51.3,63.6,71.8,99.5c5.7,10,9.7,21.5,8.6,33c-1.6,15.6-12.6,29-25.8,37.3c-13.2,8.4-28.6,12.5-43.8,16.6
					c-6.7,1.8-14.1,3.6-20.4,0.7c-6.4-2.8-9.8-12.4-4.5-16.9c1-0.9,6.7,0.4,8.1,0.5c2.6,0.2,5.2,0.3,7.7,0.6
					c14.5,1.7,29.3-2.1,38.7-13.8c9.9-12.4,15.1-30.5,10.5-46.1c-3.4-11.8-11.9-21.5-21.3-29.1c-0.1-0.1-0.2-0.1-0.2-0.2
					c-5.7-4.5-10.1-6.9-10.1-6.9c-4-2.5-8.2-5-12.4-7.3c-20.8-11.2-20.2-11.1-18.8-35.5c3.4-58.8,2.2-117.3-18.1-173.6
					c-2.3-6.5-1-9.9,4.2-14c27.2-21.2,41.2-49.5,44.4-83.6c1.1-12.3-0.6-23.6-13.3-29.1c-12.7-5.4-21,2.2-28.4,11.3
					c-12.5,15.4-26.8,28.7-44.2,38.6c-7.5,4.2-13,4.4-20.8-0.7c-48.1-31.6-118.6-31-164.8,1.1c-6.2,4.3-10.2,3.5-15.8-0.2
					c-16-10.6-28.5-24.5-39.3-40.1c-6.3-9.2-14.5-15.4-26-11.9c-12,3.7-15.6,14-15.5,25.4c0.2,28.3,6.6,56.1,27.9,74.9
					c17.5,15.5,17.7,29.5,13.6,50.3c-9.5,47.9-7.3,97.1-10.3,145.8c-1.9,31-1.2,30.9-31.9,35.2c-0.3,0-0.5,0.1-0.8,0.1
					c-2.9,0.4-5,0.5-6.5,0L823,805l0,0c0.2-6.5,0.5-13,0.7-19.5c1.2-34.1,2.5-69.3,3.9-103.9c0.4-8.7,0.7-25.5,0.3-31l-0.3-4.7
					l-56.4-26.5l0,12.3c0,3.7-0.1,8.6-0.2,13.8c-0.2,10.2-0.5,21.8-0.1,29.3c0.1,2.3-0.1,3.2-0.2,3.5c-0.3,0.2-1.2,0.6-3.9,0.9
					c-24.9,2.6-50.6,7.5-78.4,15.1c-68.9,18.8-115.8,44.7-152,83.8c-31,33.5-49.1,73.7-55.3,123.1l-1.6,12.8l12.1-4.4
					c0.3-0.1,0.6-0.2,0.8-0.3c1.1-0.3,4.1-1.2,5.7-4.5c1.4-3,2.6-5.5,3.6-7.8c24.7-57.8,66.2-95.1,127-114.3
					c48.9-15.4,98.8-15.5,141.2-13.7c0,0,0,0,0.1,0c0,0.6,0,1.2,0,1.8l-0.2,17.1c-0.2,12.6-0.4,25.1-0.5,37.7l-0.6,54.7
					c-9.3,3.5-17.8,8.9-24.9,16.1c-14.6,14.9-13.2,39.3,2.8,52.6c4.1,3.4,8.5,6.5,13.3,8.7c1.5,0.7,3.3,1.3,5.1,2
					c0.4,0.1,0.9,0.3,1.3,0.4c0.5,0.1,0.9,0.3,1.4,0.4l-1.2,113.6l0,4.5c-0.4,33.1-0.7,66.2-1,94.5l-0.1,12.5l44.5-20.9l0.3-4.7
					c0-0.7,0.1-1.4,0.1-2.1c0.9-38.4,2.5-77.5,4.1-115.3c0.6-14,1.2-27.9,1.7-41.9c0.2-3.9,0.3-7,0.6-9.1l0.4-18.5
					c1.2-1.2,2-2.2,3.2-3.4c2-0.2,3.9-0.3,5.7-0.4c3.2,0,6.5,0.1,9.6-0.3c18.8,0,24.7,4.1,26.2,5.5c1.3,1.4,2.3,3,3.1,4.7
					c4.1,9.2,2.8,19.8,4.4,29.7c2.6,16.8,13.2,31.5,15.8,48.2c1.8,12-0.5,24.1-2.9,36c-5.7,28.5-11.4,57-17,85.4
					c-2.4,11.8-4.5,24.9,5.3,34.3c6.5,6.2,15.9,8.2,24.7,6.6c15.7-2.9,27-14.8,36.8-26.7c14.2-17.3,26.8-35.8,37.7-55.2
					c2.3-4.1,4.6-8.3,8.3-11.1c3.9-2.9,8.9-3.8,13.7-4.6c16.1-2.7,32.2-5.5,48.3-8.2c3.7-0.6,7.6-1.2,11,0.2
					c3.3,1.4,5.5,4.4,7.6,7.3c12.5,17.4,25.1,34.9,37.6,52.3c10,13.8,20.5,28.2,37.5,33.7c7.8,2.5,16.5,2.4,23.8-1.4
					c14.8-7.6,15.9-23.9,16.1-38.4c0.2-19.8-0.2-39.6-1.1-59.3c-0.1-2-0.2-4.1-0.3-6.1l-1.2-19.9c-0.4-5.5-0.7-11.1-1.2-16.6
					c-0.1-0.9-0.1-1.9,0-2.8c0,0,0-0.1,0-0.1c0.9-6.7,6.9-6.9,11.8-6.9c34.4,0.4,69.3-10.1,95.8-31.9c26.5-21.8,43.8-55.4,43.1-89.8
					c-0.9-41.9-27.1-79.2-57.3-108.4c-14.1-13.6-30-27.2-30.2-48.7C1232.8,767.3,1238.1,758,1247,754z M767.8,944.7
					c-7.4-3.7-10.8-7-10.8-7c-5.7-4.6-8.8-9.9-9-15.4c-0.2-5.5,2.4-11,7.7-16.1c3.8-3.6,8-6.7,12.7-9L767.8,944.7z M808.8,963.8
					L808.8,963.8c0,0,0,0,1.1-0.2C808.8,963.8,808.8,963.8,808.8,963.8z M811.9,680.9c-1.4,34.7-2.7,69.9-3.9,104
					c-0.4,10.9-0.8,21.8-1.2,32.7l-6.1,163.5l0.3-0.1l-0.2,9.1c-0.3,2.7-0.5,6-0.6,10.1c-0.5,14-1.1,27.9-1.7,41.9
					c-1.5,36.9-3.1,75-4,112.5l-13.3,6.2c0.3-26.7,0.6-56.7,0.9-86.5l0.1-10.5l0,0l2.5-229.8l0-2.6c0.2-14.4,0.4-28.8,0.6-43.2
					l0.2-17.1c0.1-4.7,0.3-17-15.1-17.7c-43.8-1.9-95.5-1.8-146.7,14.4c-48.8,15.4-87,42.8-114,81.8c8.8-22.6,21.4-42.7,38-60.6
					c34.1-36.8,78.7-61.3,144.7-79.3c27-7.4,51.8-12.2,75.8-14.6c12.8-1.3,18.9-8.4,18.2-20.9c-0.4-6.9-0.1-18.1,0.1-28
					c0-0.6,0-1.3,0-1.9l25.7,12.1C812.4,662.8,812.2,673.8,811.9,680.9z M1162.5,559.2c4.4-5,7.7-15.6,16.2-11
					c7.5,4.1,4.5,13.9,3,21.3c-10.4,51.3-55.5,91.9-104.2,93.1c-6.8,2-11-1.8-13.8-8.6c-3.1-7.5-5.8-15.2-5.9-23.4
					c-0.2-15.9,3.6-19.8,19.4-21.6C1113,605.1,1139.5,585.2,1162.5,559.2z M843.8,561.9c0-2.6-0.1-5.1,0-7.7c0.2-3.6,1.4-6.9,5.2-8
					c3.2-0.9,5.9,1,7.6,3.5c13.8,19.8,29.6,37.5,50.8,49.7c5,2.9,1.3,5.7-0.7,8.1c-6.5,8-12.4,16.3-16.5,25.7
					c-2.9,6.7-5.7,6.8-11,2.3C856.2,616.3,845,591.5,843.8,561.9z M1155.9,1174.9c-0.7,7.5-2,15.8-10.2,18.8
					c-3.3,1.2-6.9,1-10.2-0.1c-8.2-2.8-13.2-9.7-18-16.4c-14.6-20.6-29.3-41.2-43.9-61.7c-4.8-6.7-9.9-13.7-17.6-16.8
					c-7.5-3-15.9-1.6-23.8-0.1c-13.9,2.6-27.8,5.1-41.7,7.7c-7,1.3-14.3,2.7-20.1,6.8c-4.8,3.4-8.3,8.4-11.6,13.3
					c-14,20.6-28.1,41.2-42.1,61.8c-4.7,6.9-9.6,14-17.9,16.8c-4.1,1.4-8.8,1.2-12.5-1c-8.2-5.1-7.1-15.9-5.3-24.8
					c5.5-27.9,11-55.8,16.6-83.8c2.4-12.3,4.9-24.9,3.3-37.4c-1.5-11.4-6.2-22.2-10-33.1c-4.5-12.8-7.6-26-9.3-39.4
					c-1-8-1.8-16.5-6.8-22.9c-3.7-4.8-9.3-7.5-15.1-8.7c-5.3-1.1-10.8-1-16.1-0.5c-1.6,0.1-3.1,0.4-4.7,0.6
					c-7.1,1.1-14.2,1.4-21.4,1.1l2.8-76c1,0.1,2,0.2,3.1,0.2c1.8,0,3.7-0.2,6.1-0.5l0.6-0.1c37.5-5.2,43-11,45.2-47.5l0.1-2.1
					c0.9-15.1,1.4-30.5,1.8-45.3c1-34.2,1.9-66.5,8.2-98.4c2-10.3,3.6-21,1.6-31.7c5.6-0.6,12.5-3.8,17.2-14.5
					c3.7-8.5,9.6-16.3,14.4-22.2l0.4-0.5c1.9-2.1,6.7-7.5,6.2-15.4c3-0.9,6-2.4,9-4.5c20.1-14,46.5-21.7,74.1-21.7
					c25.2,0,49.7,6.5,69.5,18.3c0,0,0,0,0,0.1c-25.4,2.2-35.6,12.9-35.4,37.3c0.1,11,3.5,20.5,7.1,29.2
					c6.7,16.2,18.3,18.6,24.6,18.6c1.8,0,3.7-0.2,5.6-0.6c18.7-0.8,36.8-6.5,53-15.9c0.3,1.2,0.7,2.4,1.1,3.6
					c20.4,56.5,20.2,116.4,17.2,167.5l-0.1,2.1c-1.7,28.5,1.6,34.3,27,47.9c7.3,3.9,14.1,8.2,20.4,12.7c3.9,4.4,8.1,8.4,10.5,13.8
					c8,17.9,1.2,44.5-20.8,47.7c-12,1.8-25.3-4-35.5,4c-8.3,6.5-9.8,17.6-5.4,26.6c1.8,27.3,6,89.1,9.1,109.1c0-0.2,0-0.3,0-0.5
					c-0.2-2.9-0.5-5.8-0.8-8.7c-0.1-1.2-0.2-2.4-0.4-3.6c-0.4-3.4-0.8-6.9-1.2-10.3c1,7.7,1.8,15.5,2.5,23.2
					C1158.3,1123.1,1158.2,1149.1,1155.9,1174.9z M1157.5,1051.7c-0.1,0.2-0.2,0.4-0.4,0.6c0,0,0,0,0,0
					C1157.2,1052.1,1157.3,1051.9,1157.5,1051.7z M1156.8,998.8C1156.8,998.8,1156.8,998.8,1156.8,998.8c0,0-0.1-0.1-0.1-0.1
					C1156.8,998.7,1156.8,998.7,1156.8,998.8z M1158.7,1049.8c0.3-0.4,0.7-0.9,1-1.3c0,0,0,0,0,0
					C1159.4,1048.9,1159,1049.4,1158.7,1049.8z M1160.1,1048.1c0.2-0.2,0.4-0.4,0.6-0.6c0.4-0.4,0.7-0.7,1.1-1
					C1161.2,1046.9,1160.7,1047.5,1160.1,1048.1z M1159.1,1000.3c-0.2-0.1-0.3-0.2-0.5-0.3c1.1,0.7,2.2,1.3,3.3,1.8
					C1161,1001.4,1160,1000.9,1159.1,1000.3z M1233.9,817.2c11,15.3,25.5,27.7,37.9,41.9c19.8,22.7,34.5,51.7,33.2,81.8
					c-1.1,27.6-15.9,53.8-37.4,71.1c-21.5,17.4-49,26.3-76.6,27.6c-7.5,0.3-15.7,0.4-22.6,3c-0.8,0.3-1.5,0.6-2.2,1
					c0.7-0.4,1.5-0.7,2.2-1l-2.3-39.1c-1.3-0.4-2.7-1-3.9-1.5c1.3,0.6,2.6,1.1,3.9,1.5c13,4.2,28,1.2,41.2-3.2
					c32.4-10.9,65.6-34.8,67.3-69c1.1-22-11.5-42.4-26.2-58.8c-14.6-16.4-31.9-30.8-43.6-49.4c-11.7-18.6-16.9-43.6-5.4-62.4
					c7.6-12.5,22.2-22.6,21.1-37.2c-0.7-9.8-9-19.3-5.5-28.6c5.3,5.3,10.6,10.6,15.9,15.9c-0.4-20.6-0.7-41.9,6.8-61.1
					c7.5-19.2,24.9-36.1,45.5-36.4c-6.7,10.5-13.5,20.9-20.2,31.4l32.1,2.5c-4.6,12.1-0.5,25.6,4.7,37.4
					c6.4,14.4,14.6,28.9,10.9,45.4c-1.7,7.7-6.8,14.4-14.2,17c-13.5,4.9-22.8-6.4-34.4-10.2c-17.9-5.8-37.7,9.2-42.2,27.5
					C1215.5,782.5,1222.9,801.9,1233.9,817.2z"/>
			</g>
		</g>
	</g>
</g>
</svg>
