<?xml version="1.0" encoding="utf-8"?>
<!-- Generator: Adobe Illustrator 25.2.1, SVG Export Plug-In . SVG Version: 6.00 Build 0)  -->
<svg version="1.1" id="Layer_1" xmlns="http://www.w3.org/2000/svg" xmlns:xlink="http://www.w3.org/1999/xlink" x="0px" y="0px"
	 viewBox="0 0 2000 2000" style="enable-background:new 0 0 2000 2000;" xml:space="preserve">
<g>
	<g>
		<path d="M404.6,970.2c0,23.8,19.5,43.3,43.3,43.3h59.6c8.9,0,16,7.4,16,16c0,8.9-7.1,16-16,16H404.6v27.7h102.9
			c23.8,0,43.3-19.5,43.3-43.6c0-23.8-19.5-43.3-43.3-43.3h-59.6c-8.9,0-16-7.1-16-16c0-8.9,7.1-16,16-16h102.9v-27.3H447.8
			C424.1,926.9,404.6,946.1,404.6,970.2z"/>
		<path d="M687.6,926.9c-40.4,0-73.1,33-73.1,73.1c0,40.4,32.6,73.1,73.1,73.1c28.7,0,53.9-16.7,65.6-40.8h-33
			c-8.5,8.2-19.9,13.5-32.6,13.5c-20.6,0-38-13.5-43.6-31.9h115.3c0.7-4.3,1.4-8.9,1.4-13.8C760.7,959.9,728.1,926.9,687.6,926.9z
			 M644,986.5c5.7-18.4,23.1-31.9,43.6-31.9c20.2,0,37.6,13.5,43.6,31.9H644z"/>
		<path d="M897.7,926.9c-40.4,0-73.1,32.6-73.1,73.1c0,40.4,32.6,73.1,73.1,73.1c17.4,0,33-6,45.8-16v16h27.3V1000
			C970.7,959.6,938.1,926.9,897.7,926.9z M897.7,1045.8c-25.2,0-45.8-20.6-45.8-45.8c0-25.2,20.6-45.8,45.8-45.8
			c25.2,0,45.8,20.6,45.8,45.8C943.4,1025.2,922.8,1045.8,897.7,1045.8z"/>
		<path d="M1107.7,926.9c-40.4,0-73.1,32.6-73.1,73.1v73.1h27.3V1000c0-25.2,20.6-45.8,45.8-45.8s45.8,20.6,45.8,45.8v73.1h27.3
			V1000C1180.7,959.6,1148.1,926.9,1107.7,926.9z"/>
		<path d="M1317.7,954.6c14.9,0,28.4,7.1,36.5,18.1h31.2c-10.6-26.6-36.9-45.8-67.8-45.8c-40.1,0-73.1,33-73.1,73.1
			c0,40.4,33,73.1,73.1,73.1c30.9,0,57.1-18.8,67.8-45.4h-31.2c-8.2,11-21.6,18.1-36.5,18.1c-25.2,0-45.4-20.6-45.4-45.8
			C1272.3,974.8,1292.5,954.6,1317.7,954.6z"/>
		<path d="M1595.4,1000c0-40.1-32.6-73.1-73.1-73.1c-40.4,0-73.1,33-73.1,73.1c0,40.4,32.6,73.1,73.1,73.1
			c28.7,0,53.9-16.7,65.6-40.8h-33c-8.5,8.2-19.9,13.5-32.6,13.5c-20.6,0-38-13.5-43.6-31.9H1594
			C1594.7,1009.6,1595.4,1005,1595.4,1000z M1478.7,986.5c5.7-18.4,23.1-31.9,43.6-31.9c20.2,0,37.6,13.5,43.6,31.9H1478.7z"/>
	</g>
</g>
</svg>
